<svg width="70" height="70" fill="none" xmlns="http://www.w3.org/2000/svg"><path fill-rule="evenodd" clip-rule="evenodd" d="M35 5.833c11.276 0 20.417 9.141 20.417 20.417 0 3.41-.834 6.622-2.313 9.448L35 67.083 17.315 36.46a20.3 20.3 0 01-2.732-10.21c0-11.276 9.141-20.417 20.417-20.417zm0 5.834c-8.054 0-14.583 6.529-14.583 14.583 0 2.316.534 4.538 1.545 6.544l.49.895L35 55.417l12.637-21.88a14.465 14.465 0 001.946-7.287c0-8.054-6.529-14.583-14.583-14.583zm0 5.833A8.75 8.75 0 1135 35a8.75 8.75 0 010-17.5zm0 5.833a2.917 2.917 0 100 5.834 2.917 2.917 0 000-5.834z" fill="#C0B7E8"/></svg>